<?xml version="1.0" encoding="iso-8859-1"?>
<!-- Generator: Adobe Illustrator 18.0.0, SVG Export Plug-In . SVG Version: 6.00 Build 0)  -->
<!DOCTYPE svg PUBLIC "-//W3C//DTD SVG 1.1//EN" "http://www.w3.org/Graphics/SVG/1.1/DTD/svg11.dtd">
<svg version="1.1" id="Capa_1" xmlns="http://www.w3.org/2000/svg" xmlns:xlink="http://www.w3.org/1999/xlink" x="0px" y="0px"
	 viewBox="0 0 59 59" style="enable-background:new 0 0 59 59;" xml:space="preserve">
<g>
	<path d="M56.723,57.309l-5.969-6.244c1.746-1.919,2.82-4.458,2.82-7.25c0-5.953-4.843-10.796-10.796-10.796
		s-10.796,4.843-10.796,10.796S36.824,54.61,42.777,54.61c2.441,0,4.688-0.824,6.499-2.196l6.001,6.277
		C55.474,58.896,55.736,59,56,59c0.249,0,0.497-0.092,0.691-0.277C57.09,58.341,57.105,57.708,56.723,57.309z M33.982,43.814
		c0-4.85,3.946-8.796,8.796-8.796s8.796,3.946,8.796,8.796s-3.946,8.796-8.796,8.796S33.982,48.664,33.982,43.814z"/>
	<path d="M54,5c0-0.552-0.448-1-1-1h-5V1c0-0.553-0.448-1-1-1h-7c-0.552,0-1,0.447-1,1v3H17V1c0-0.553-0.448-1-1-1H9
		C8.448,0,8,0.447,8,1v3H3C2.448,4,2,4.448,2,5v9h52V5z M15,5v3h-5V5V2h5V5z M46,5v3h-5V5V2h5V5z"/>
	<path d="M28.982,43.814c0-7.607,6.188-13.796,13.796-13.796c4.627,0,8.719,2.297,11.223,5.802v-5.642V17c0-0.553-0.448-1-1-1H3
		c-0.552,0-1,0.447-1,1v39c0,0.553,0.448,1,1,1h35.722C33.088,55.264,28.982,50.011,28.982,43.814z M39,22h8v8h-4.515H39V22z M29,22
		h7h1v8h-8V22z M17,50H9v-8h8V50z M17,40H9v-8h8V40z M17,30H9v-8h8V30z M27,50h-7h-1v-8h8V50z M27,40h-8v-8h8V40z M27,30h-8v-8h1h7
		V30z"/>
</g>
<g>
</g>
<g>
</g>
<g>
</g>
<g>
</g>
<g>
</g>
<g>
</g>
<g>
</g>
<g>
</g>
<g>
</g>
<g>
</g>
<g>
</g>
<g>
</g>
<g>
</g>
<g>
</g>
<g>
</g>
</svg>
